<svg xmlns="http://www.w3.org/2000/svg" viewBox="0 0 292.6 21.4"><defs><style>.cls-1{fill:#d4c098;fill-rule:evenodd;}</style></defs><title>flagpole_01</title><g id="Layer_2" data-name="Layer 2"><g id="사전등록"><path class="cls-1" d="M3.79,13.27H144.57A.44.44,0,0,0,145,13a.43.43,0,0,0-.27-.54v0s-1.57-1-1.57-2.21a2.21,2.21,0,1,1,2.22,2.21l.64,1h1.15l1.71,8,1.86-9.27-4.43-6-11.2,5.66H12.62l3.65-5.53L0,13.27H3.79Z"/><path class="cls-1" d="M149,8.27l3,4.14c.36.86.91.86,1.14.86H292.6l-16.27-7L280,11.79H163.17L152,6.28Z"/><polygon class="cls-1" points="146.72 4.28 148.86 7.13 151.01 4.28 148.86 0 146.72 4.28"/></g></g></svg>