<svg xmlns="http://www.w3.org/2000/svg" xmlns:xlink="http://www.w3.org/1999/xlink" viewBox="0 0 290.55 49.69"><defs><style>.cls-1{fill:url(#linear-gradient);}.cls-2{fill:url(#linear-gradient-2);}.cls-3{fill:#171717;}.cls-4{fill:url(#linear-gradient-3);}.cls-5{fill:url(#linear-gradient-4);}.cls-6{fill:red;}.cls-7{fill:#860000;}.cls-8{fill:#ff4533;}.cls-9{fill:#9c0000;}</style><linearGradient id="linear-gradient" x1="260.52" y1="0.9" x2="260.52" y2="48.15" gradientUnits="userSpaceOnUse"><stop offset="0" stop-color="#e9c446"/><stop offset="0.5" stop-color="#fed856"/><stop offset="0.5" stop-color="#cea43b"/><stop offset="1" stop-color="#bb8e33"/></linearGradient><linearGradient id="linear-gradient-2" x1="1041.32" y1="0.9" x2="1041.32" y2="48.15" gradientTransform="matrix(-1, 0, 0, 1, 1071.35, 0)" xlink:href="#linear-gradient"/><linearGradient id="linear-gradient-3" x1="145.28" y1="8" x2="145.28" y2="43.62" gradientTransform="translate(120.43 170.12) rotate(-90)" gradientUnits="userSpaceOnUse"><stop offset="0" stop-color="#777"/><stop offset="0.02" stop-color="#6e6e6e"/><stop offset="0.06" stop-color="#545454"/><stop offset="0.1" stop-color="#2b2b2b"/><stop offset="0.12" stop-color="#171717"/><stop offset="0.89" stop-color="#171717"/><stop offset="1" stop-color="#777"/></linearGradient><linearGradient id="linear-gradient-4" x1="145.28" y1="0.9" x2="145.28" y2="48.15" xlink:href="#linear-gradient"/></defs><title>intro_btn_m</title><g id="Layer_2" data-name="Layer 2"><g id="Layer_1-2" data-name="Layer 1"><path class="cls-1" d="M282.82,18.75l-3.43,3-1.13-.89-11.17-8.83a2,2,0,0,0-2.29-.14l-7.73,4.74-1.34.83-4,2.47-1.34.82-3.48,2.13a2.39,2.39,0,0,0,0,4L250.37,29l1.34.82-1.25,1-1.73,1.36-11.86-7.29,11.86-7.28L250.46,19l4-2.47-4.36-3.44a2,2,0,0,0-2.28-.14l-16.28,10a2.38,2.38,0,0,0,0,4l16.28,10a2,2,0,0,0,1,.3,2,2,0,0,0,1.24-.44l4.36-3.44,1.25-1,1.34.83,7.73,4.74a2,2,0,0,0,1,.3,2,2,0,0,0,1.25-.44l10.33-8.16a.89.89,0,0,0,0-1.37l-.53-.47-1.33-1.17-.16-.14a.9.9,0,0,0-1.15,0l-8.59,6.79-4.9-3-1.34-.83,1.25-1,2.07-1.64a2.39,2.39,0,0,0,0-3.67L261.2,21.8a.91.91,0,0,0-1-.06l-3.48,2.14,1.27,1-1.27,1-1.25,1-1.34-.82-1.89-1.17,1.89-1.16,1.34-.82,4-2.47,1.34-.83,4.9-3L276,24.74l7.3,5.77a.6.6,0,0,0,.77,0l2.72-2.39L290.35,25a.61.61,0,0,0,0-.93l-6.73-5.32A.6.6,0,0,0,282.82,18.75Z"/><path class="cls-2" d="M7.74,18.75l3.43,3,1.12-.89,11.18-8.83a2,2,0,0,1,2.28-.14l7.73,4.74,1.35.83,4,2.47,1.34.82,3.47,2.13a2.38,2.38,0,0,1,0,4L40.19,29l-1.34.82,1.24,1,1.73,1.36,11.86-7.29L41.82,17.6,40.09,19l-4-2.47,4.36-3.44a2,2,0,0,1,2.29-.14L59,22.9a2.38,2.38,0,0,1,0,4l-16.27,10a2,2,0,0,1-2.29-.14l-4.36-3.44-1.24-1-1.35.83-7.73,4.74a2,2,0,0,1-1,.3,2,2,0,0,1-1.24-.44L13.13,29.56a.89.89,0,0,1,0-1.37l.52-.47L15,26.55l.16-.14a.91.91,0,0,1,1.15,0l8.59,6.79,4.9-3,1.34-.83-1.24-1-2.07-1.64a2.37,2.37,0,0,1,0-3.67l1.58-1.25a.89.89,0,0,1,1-.06l3.49,2.14-1.27,1,1.27,1,1.24,1,1.34-.82,1.9-1.17-1.9-1.16-1.34-.82-4-2.47-1.34-.83-4.9-3-10.3,8.14L7.24,30.51a.6.6,0,0,1-.77,0L3.75,28.1.21,25a.6.6,0,0,1,0-.93L7,18.73A.62.62,0,0,1,7.74,18.75Z"/><rect class="cls-3" x="57.16" y="3.97" width="176.23" height="41.74" rx="8.8"/><rect class="cls-4" x="126.39" y="-61.28" width="37.76" height="172.25" rx="8.66" transform="translate(170.12 -120.43) rotate(90)"/><path class="cls-5" d="M222.79,0h-155A14.59,14.59,0,0,0,53.19,14.57V35.12A14.59,14.59,0,0,0,67.76,49.69h155a14.59,14.59,0,0,0,14.57-14.57V14.57A14.59,14.59,0,0,0,222.79,0Zm10.6,35.12a10.6,10.6,0,0,1-10.6,10.59h-155a10.6,10.6,0,0,1-10.6-10.59c0-2.64,8-10.28,8-10.28s-8-6.44-8-10.27A10.61,10.61,0,0,1,67.76,4h155a10.61,10.61,0,0,1,10.6,10.6c0,3.83-8,10.27-8,10.27S233.39,32.48,233.39,35.12Z"/><polygon class="cls-6" points="237.21 24.89 237.22 24.86 234 20.82 233.63 24.89 237.21 24.89"/><polygon class="cls-7" points="234 20.82 226.99 24.86 227.03 24.89 233.63 24.89 234 20.82"/><polygon class="cls-8" points="237.21 24.89 237.22 24.91 234 28.95 233.63 24.89 237.21 24.89"/><polygon class="cls-9" points="234 28.95 226.99 24.91 227.03 24.89 233.63 24.89 234 28.95"/><polygon class="cls-6" points="53.35 24.89 53.33 24.86 56.55 20.82 56.93 24.89 53.35 24.89"/><polygon class="cls-7" points="56.55 20.82 63.57 24.86 63.53 24.89 56.93 24.89 56.55 20.82"/><polygon class="cls-8" points="53.35 24.89 53.33 24.91 56.55 28.95 56.93 24.89 53.35 24.89"/><polygon class="cls-9" points="56.55 28.95 63.57 24.91 63.53 24.89 56.93 24.89 56.55 28.95"/></g></g></svg>