<svg xmlns="http://www.w3.org/2000/svg" xmlns:xlink="http://www.w3.org/1999/xlink" viewBox="0 0 213.68 90.97"><defs><style>.cls-1{fill:#171717;}.cls-2{fill:url(#linear-gradient);}.cls-3{fill:url(#linear-gradient-2);}.cls-4{fill:red;}.cls-5{fill:#860000;}.cls-6{fill:#ff4533;}.cls-7{fill:#9c0000;}</style><linearGradient id="linear-gradient" x1="106.84" y1="14.65" x2="106.84" y2="79.86" gradientTransform="translate(61.36 152.32) rotate(-90)" gradientUnits="userSpaceOnUse"><stop offset="0" stop-color="#777"/><stop offset="0.02" stop-color="#6e6e6e"/><stop offset="0.06" stop-color="#545454"/><stop offset="0.1" stop-color="#2b2b2b"/><stop offset="0.12" stop-color="#171717"/><stop offset="0.89" stop-color="#171717"/><stop offset="1" stop-color="#777"/></linearGradient><linearGradient id="linear-gradient-2" x1="106.84" y1="1.64" x2="106.84" y2="88.15" gradientUnits="userSpaceOnUse"><stop offset="0" stop-color="#e9c446"/><stop offset="0.5" stop-color="#fed856"/><stop offset="0.5" stop-color="#cea43b"/><stop offset="1" stop-color="#bb8e33"/></linearGradient></defs><title>intro_btn_01</title><g id="Layer_2" data-name="Layer 2"><g id="Layer_1-2" data-name="Layer 1"><rect class="cls-1" x="7.28" y="7.28" width="199.13" height="76.42" rx="8.8"/><rect class="cls-2" x="72.27" y="-50.44" width="69.14" height="191.85" rx="8.66" transform="translate(152.32 -61.36) rotate(90)"/><path class="cls-3" d="M187,0H26.68A26.71,26.71,0,0,0,0,26.68V64.29A26.71,26.71,0,0,0,26.68,91H187a26.71,26.71,0,0,0,26.68-26.68V26.68A26.71,26.71,0,0,0,187,0Zm19.4,64.29A19.39,19.39,0,0,1,187,83.69H26.68a19.39,19.39,0,0,1-19.4-19.4C7.28,59.46,22,45.48,22,45.48S7.28,33.69,7.28,26.68a19.39,19.39,0,0,1,19.4-19.4H187a19.39,19.39,0,0,1,19.4,19.4c0,7-14.69,18.8-14.69,18.8S206.4,59.46,206.4,64.29Z"/><polygon class="cls-4" points="213.39 45.56 213.43 45.52 207.53 38.12 206.83 45.56 213.39 45.56"/><polygon class="cls-5" points="207.53 38.12 194.68 45.52 194.75 45.56 206.83 45.56 207.53 38.12"/><polygon class="cls-6" points="213.39 45.56 213.43 45.6 207.53 52.99 206.83 45.56 213.39 45.56"/><polygon class="cls-7" points="207.53 52.99 194.68 45.6 194.75 45.56 206.83 45.56 207.53 52.99"/><polygon class="cls-4" points="0.29 45.56 0.26 45.52 6.15 38.12 6.84 45.56 0.29 45.56"/><polygon class="cls-5" points="6.15 38.12 19 45.52 18.93 45.56 6.84 45.56 6.15 38.12"/><polygon class="cls-6" points="0.29 45.56 0.26 45.6 6.15 52.99 6.84 45.56 0.29 45.56"/><polygon class="cls-7" points="6.15 52.99 19 45.6 18.93 45.56 6.84 45.56 6.15 52.99"/></g></g></svg>