<svg xmlns="http://www.w3.org/2000/svg" viewBox="0 0 14.84 25.15"><defs><style>.cls-1{fill:#ff7200;}.cls-2{fill:#320000;}.cls-3{fill:#ff6800;}.cls-4{fill:#480000;}.cls-5{fill:#ffa100;}.cls-6{fill:#680000;}.cls-7{fill:#ff8300;}.cls-8{fill:#270000;}.cls-9{fill:#ff5100;}.cls-10{fill:red;}.cls-11{fill:#860000;}.cls-12{fill:#ff4533;}.cls-13{fill:#9c0000;}</style></defs><title>scroll_arrow</title><g id="Layer_2" data-name="Layer 2"><g id="Layer_1-2" data-name="Layer 1"><path class="cls-1" d="M14.82,12.51,7.59,25.06a.15.15,0,0,1-.14.09h0V21.93l0,.05,5.28-9.17,2.11-.38S14.83,12.49,14.82,12.51Z"/><path class="cls-2" d="M7.45,22.31a.32.32,0,0,1-.29-.17l0-.05a.33.33,0,0,1,0-.16V13.29A.34.34,0,0,1,7.39,13l5.31-.5h0a.33.33,0,0,1,.28.16A.32.32,0,0,1,13,13L7.74,22.15a.34.34,0,0,1-.29.16Z"/><path class="cls-3" d="M0,12.51,7.24,25.06a.16.16,0,0,0,.15.09h0V21.93l0,.05L2.11,12.81,0,12.43A.19.19,0,0,0,0,12.51Z"/><path class="cls-4" d="M2.13,12.46h0a.33.33,0,0,0-.28.16.34.34,0,0,0,0,.34L7.1,22.15a.34.34,0,0,0,.29.16h0V13Z"/><path class="cls-5" d="M7.66,6.62h0l7.11,5.68a.15.15,0,0,1,.07.13l-2.11.38h0L7.45,8.58l0,0v-2Z"/><path class="cls-6" d="M12.94,12.54,7.66,8.32a.35.35,0,0,0-.21-.07.31.31,0,0,0-.21.07l0,0a.35.35,0,0,0-.13.26v4.69a.36.36,0,0,0,.11.25.4.4,0,0,0,.23.08h0L9,13.48l4.11-.73A.3.3,0,0,0,12.94,12.54Z"/><path class="cls-7" d="M7.17,6.62h0L.06,12.3a.16.16,0,0,0-.06.13l2.11.38h0L7.39,8.58l0,0v-2Z"/><path class="cls-8" d="M7.39,13.62h0V8.25h0a.31.31,0,0,0-.21.07L1.9,12.54a.3.3,0,0,0-.12.21l4.11.73Z"/><path class="cls-7" d="M7.42,0h0a.19.19,0,0,0-.11,0l-4,3.2a.25.25,0,0,0,0,.07h4.2Z"/><path class="cls-9" d="M3.22,3.31a.14.14,0,0,0,0,.06.16.16,0,0,0,.06.13L7.17,6.62h.25V3.31Z"/><polygon class="cls-10" points="7.42 8.6 7.39 8.58 2.1 12.8 7.42 13.29 7.42 8.6"/><polygon class="cls-11" points="2.1 12.8 7.39 21.98 7.42 21.93 7.42 13.29 2.1 12.8"/><path class="cls-5" d="M7.42,0h0a.19.19,0,0,1,.1,0l4,3.2,0,.07H7.42Z"/><path class="cls-1" d="M11.62,3.31a.13.13,0,0,1,0,.06.16.16,0,0,1-.06.13L7.66,6.62H7.42V3.31Z"/><polygon class="cls-12" points="7.42 8.6 7.45 8.58 12.73 12.8 7.42 13.29 7.42 8.6"/><polygon class="cls-13" points="12.73 12.8 7.45 21.98 7.42 21.93 7.42 13.29 12.73 12.8"/></g></g></svg>