<svg xmlns="http://www.w3.org/2000/svg" viewBox="0 0 10.81 24.45"><defs><style>.cls-1{fill:#d4c098;}</style></defs><title>nav_point</title><g id="Layer_2" data-name="Layer 2"><g id="header"><path class="cls-1" d="M2.91,3.15,4.13,4.54,3.77,5,.18,9.55a.8.8,0,0,0-.06.93l1.93,3.15.34.54,1,1.64.34.55.87,1.41a1,1,0,0,0,1.61,0l.87-1.41.33-.55.4.51.56.7-3,4.83L2.44,17l.55-.7L2,14.68.59,16.46a.8.8,0,0,0-.06.93L4.6,24a1,1,0,0,0,1.61,0l4.07-6.62A.85.85,0,0,0,10.4,17a.79.79,0,0,0-.18-.5l-1.4-1.78-.4-.51.33-.54,1.94-3.15a.8.8,0,0,0-.06-.93L7.31,5.35a.36.36,0,0,0-.56,0l-.19.21-.48.55L6,6.15a.38.38,0,0,0,0,.47l2.77,3.5-1.23,2-.33.54-.4-.5-.67-.84a1,1,0,0,0-1.49,0L4.15,12a.35.35,0,0,0,0,.41L5,13.78l.4-.51.41.51.4.51-.33.55-.48.77-.47-.77-.33-.55-1-1.64-.34-.54L2,10.12l3.32-4.2L7.69,3a.26.26,0,0,0,0-.32l-1-1.1L5.44.08a.25.25,0,0,0-.38,0L2.9,2.83A.24.24,0,0,0,2.91,3.15Z"/></g></g></svg>