<svg xmlns="http://www.w3.org/2000/svg" viewBox="0 0 14.75 22.89"><defs><style>.cls-1{fill:#fff;fill-rule:evenodd;}</style></defs><title>res_point</title><g id="Layer_2" data-name="Layer 2"><g id="header"><path class="cls-1" d="M14.75,12.9a7.34,7.34,0,0,0-6.5-7.26V4.36a1,1,0,0,0,1-.83l2.21-.38c.34-.81,1.69-1.09,1.69-1.09l-4.55.65L8.26,1.35,9.21,0,7.67.77V22.89c.11-.63.28-1.69.37-2.7A7.34,7.34,0,0,0,14.75,12.9ZM8.23,6.84c2.35.5,4.13,3,4.13,6.07S10.5,18.58,8.09,19Z"/><path class="cls-1" d="M0,12.9a7.34,7.34,0,0,0,6.71,7.29c.09,1,.26,2.07.36,2.7V.77L5.48,0l.95,1.35L6.05,2.71,1.56,2.06s1.35.28,1.69,1.09l2.2.38a1.05,1.05,0,0,0,1,.83V5.64A7.34,7.34,0,0,0,0,12.9ZM6.51,6.84,6.66,19c-2.42-.43-4.27-3-4.27-6.1S4.17,7.34,6.51,6.84Z"/></g></g></svg>