<svg xmlns="http://www.w3.org/2000/svg" xmlns:xlink="http://www.w3.org/1999/xlink" viewBox="0 0 50.39 22.28"><defs><style>.cls-1{fill:url(#linear-gradient);}</style><linearGradient id="linear-gradient" x1="-11052.69" y1="-8.99" x2="-11052.69" y2="30.66" gradientTransform="matrix(-1, 0, 0, 1, -11027.49, 0)" gradientUnits="userSpaceOnUse"><stop offset="0" stop-color="#e9c446"/><stop offset="0.5" stop-color="#fed856"/><stop offset="0.5" stop-color="#cea43b"/><stop offset="1" stop-color="#bb8e33"/></linearGradient></defs><title>btn_bg_01</title><g id="Layer_2" data-name="Layer 2"><g id="Layer_1-2" data-name="Layer 1"><path class="cls-1" d="M6.49,6,9.37,8.52l.94-.74L19.69.37A1.66,1.66,0,0,1,21.61.25l6.48,4,1.13.69L32.59,7l1.13.69,2.91,1.79a2,2,0,0,1,0,3.32l-2.91,1.79-1.13.69,1,.83,1.45,1.14L45,11.14,35.09,5,33.64,6.17,30.26,4.1l3.66-2.89a1.67,1.67,0,0,1,1.92-.12L49.5,9.48a2,2,0,0,1,0,3.32L35.84,21.19a1.62,1.62,0,0,1-.87.25,1.72,1.72,0,0,1-1-.37l-3.66-2.89-1-.83-1.13.7-6.48,4a1.66,1.66,0,0,1-.88.25,1.7,1.7,0,0,1-1-.37L11,15.06a.75.75,0,0,1,0-1.15l.44-.39,1.11-1,.14-.12a.75.75,0,0,1,1,0l7.21,5.7L25,15.57l1.13-.69L25,14.05l-1.73-1.37a2,2,0,0,1,0-3.08l1.32-1a.74.74,0,0,1,.86-.05l2.93,1.8-1.07.84,1.07.84,1,.83,1.12-.69,1.59-1-1.59-1-1.12-.69L26.09,7.4,25,6.71,20.85,4.19,12.21,11,6.08,15.86a.51.51,0,0,1-.65,0l-2.28-2-3-2.62a.51.51,0,0,1,0-.78L5.84,6A.51.51,0,0,1,6.49,6Z"/></g></g></svg>