<svg xmlns="http://www.w3.org/2000/svg" xmlns:xlink="http://www.w3.org/1999/xlink" viewBox="0 0 188.87 104.85"><defs><style>.cls-1{fill:url(#linear-gradient);}</style><linearGradient id="linear-gradient" y1="52.42" x2="466.87" y2="52.42" gradientTransform="translate(188.87 104.85) rotate(180)" gradientUnits="userSpaceOnUse"><stop offset="0" stop-color="#e9c446"/><stop offset="0.5" stop-color="#fed856"/><stop offset="0.5" stop-color="#cea43b"/><stop offset="1" stop-color="#bb8e33"/></linearGradient></defs><title>next</title><g id="Layer_2" data-name="Layer 2"><g id="Layer_1-2" data-name="Layer 1"><path class="cls-1" d="M.92,54.36l27,22a2.5,2.5,0,0,0,3.16,0l9.64-7.85,4.8-3.92,6.68,4.88,8.34,6.1,37.65,27.54a9,9,0,0,0,9.76.56l76.37-43.42a9,9,0,0,0,0-15.65L108,1.18a9,9,0,0,0-9.76.56L60.54,29.27h0A25.69,25.69,0,0,0,91,29.33l13.16-9.63,57.55,32.72L122.5,74.69,104.11,85.14,73.37,62.66l-14-10.24H59c0-.1,0-.2,0-.3L43.33,40.68a25.7,25.7,0,0,0-31.39.82l-11,9a2.49,2.49,0,0,0,0,3.87Z"/></g></g></svg>