<svg xmlns="http://www.w3.org/2000/svg" xmlns:xlink="http://www.w3.org/1999/xlink" viewBox="0 0 188.87 104.85"><defs><style>.cls-1{fill:url(#linear-gradient);}</style><linearGradient id="linear-gradient" y1="52.42" x2="466.87" y2="52.42" gradientUnits="userSpaceOnUse"><stop offset="0" stop-color="#e9c446"/><stop offset="0.5" stop-color="#fed856"/><stop offset="0.5" stop-color="#cea43b"/><stop offset="1" stop-color="#bb8e33"/></linearGradient></defs><title>prev</title><g id="Layer_2" data-name="Layer 2"><g id="Layer_1-2" data-name="Layer 1"><path class="cls-1" d="M188,50.49l-27-22a2.5,2.5,0,0,0-3.16,0l-9.64,7.85-4.81,3.92-6.67-4.89-8.34-6.1L90.68,1.74a9,9,0,0,0-9.76-.56L4.55,44.6a9,9,0,0,0,0,15.65l76.37,43.42a9,9,0,0,0,9.76-.56l37.65-27.53h0a25.69,25.69,0,0,0-30.41-.07L84.75,85.14,27.21,52.42,66.36,30.16,84.75,19.7l30.74,22.49,14,10.23h.38a2.77,2.77,0,0,0,0,.3l15.64,11.44a25.67,25.67,0,0,0,31.38-.82l11-9a2.49,2.49,0,0,0,0-3.87Z"/></g></g></svg>