<svg xmlns="http://www.w3.org/2000/svg" viewBox="0 0 292.6 21.4"><defs><style>.cls-1{fill:#9c0000;fill-rule:evenodd;}</style></defs><title>red_flagpole</title><g id="Layer_2" data-name="Layer 2"><g id="이벤트1"><path class="cls-1" d="M288.81,8.13H148a.43.43,0,0,0-.41.29.41.41,0,0,0,.27.54V9s1.58,1,1.58,2.21A2.21,2.21,0,1,1,147.24,9l-.64-1h-1.15l-1.72-8-1.86,9.27,4.44,6L157.5,9.61H280l-3.65,5.53,16.27-7h-3.79Z"/><path class="cls-1" d="M143.59,13.13l-3-4.14c-.35-.86-.9-.86-1.14-.86H0l16.27,7L12.62,9.61h116.8l11.16,5.51Z"/><polygon class="cls-1" points="145.88 17.12 143.73 14.27 141.59 17.12 143.73 21.4 145.88 17.12"/></g></g></svg>