<svg xmlns="http://www.w3.org/2000/svg" xmlns:xlink="http://www.w3.org/1999/xlink" viewBox="0 0 49.17 21.75"><defs><style>.cls-1{fill:url(#linear-gradient);}.cls-2{fill:url(#linear-gradient-2);}</style><linearGradient id="linear-gradient" x1="15.95" y1="-0.15" x2="15.95" y2="21.68" gradientUnits="userSpaceOnUse"><stop offset="0" stop-color="#e9c446"/><stop offset="0.5" stop-color="#fed856"/><stop offset="0.5" stop-color="#cea43b"/><stop offset="1" stop-color="#bb8e33"/></linearGradient><linearGradient id="linear-gradient-2" x1="33.23" y1="-0.15" x2="33.23" y2="21.68" xlink:href="#linear-gradient"/></defs><title>btn_bg_02</title><g id="Layer_2" data-name="Layer 2"><g id="Layer_1-2" data-name="Layer 1"><path class="cls-1" d="M15.72,17.66,5.64,10.88,15.72,4.09,20.18,6.8l.95.58,3.66,2.24.94.57,1.13.69-1.13.68L29,13.75l2.15-1.37a1.87,1.87,0,0,0,0-3L29,8l-.92-.58L24.54,5.18l-.93-.59L17,.36a1.89,1.89,0,0,0-2-.12l-14,9a1.87,1.87,0,0,0,0,3.25l14,9a1.91,1.91,0,0,0,.92.24A1.89,1.89,0,0,0,17,21.39l6.66-4.23L20.18,15Z"/><path class="cls-2" d="M48.41,9.37,34.23.36a1.89,1.89,0,0,0-2-.12L25.46,4.59,29,6.81l4-2.72,11.14,6.79L33,17.66l-4-2.72-.9-.61-3.27-2.19-.91-.62-1-.64,1-.65L20.19,8l-2,1.27a1.87,1.87,0,0,0,0,3.25l2,1.27.94.6,3.41,2.2.92.6,6.74,4.34a1.91,1.91,0,0,0,.92.24,1.89,1.89,0,0,0,1.11-.36l14.18-9a1.87,1.87,0,0,0,0-3Z"/></g></g></svg>