<svg xmlns="http://www.w3.org/2000/svg" viewBox="0 0 44.98 44.98"><defs><style>.cls-1{fill:#fff;}</style></defs><title>Asset 11</title><g id="Layer_2" data-name="Layer 2"><g id="Layer_1-2" data-name="Layer 1"><polygon class="cls-1" points="16.64 31.71 32.62 22.49 16.64 13.27 16.64 31.71"/><path class="cls-1" d="M44.88,20.34s0-.07,0-.1c-.07-.68-.17-1.36-.3-2l0-.15c-.13-.65-.29-1.29-.47-1.92L44,16c-.18-.61-.4-1.22-.63-1.81l-.09-.21c-.24-.58-.5-1.15-.79-1.71L42.39,12c-.29-.55-.6-1.09-.94-1.61l-.13-.21q-.51-.78-1.08-1.5l-.15-.2c-.39-.48-.79-1-1.21-1.4l-.17-.17c-.43-.45-.88-.88-1.34-1.29l-.17-.15c-.47-.41-1-.8-1.47-1.17l-.16-.11A18.49,18.49,0,0,0,34,3.15l-.14-.08c-.56-.33-1.14-.64-1.73-.92L32,2.1c-.61-.28-1.23-.54-1.87-.77l-.05,0A22.49,22.49,0,1,0,45,22.49C45,21.76,45,21.05,44.88,20.34ZM22.49,38.92a16.43,16.43,0,0,1,0-32.85c.54,0,1.07,0,1.6.08h.13a16.43,16.43,0,0,1-1.73,32.76Z"/></g></g></svg>