<svg xmlns="http://www.w3.org/2000/svg" xmlns:xlink="http://www.w3.org/1999/xlink" viewBox="0 0 119.14 35.3"><defs><style>.cls-1{fill:#a6a6a6;}.cls-10,.cls-2,.cls-3{fill:#fff;}.cls-2{stroke:#fff;stroke-miterlimit:10;stroke-width:0.2px;}.cls-4{fill:url(#linear-gradient);}.cls-5{fill:url(#linear-gradient-2);}.cls-6{fill:url(#linear-gradient-3);}.cls-7{fill:url(#linear-gradient-4);}.cls-8{opacity:0.2;}.cls-10,.cls-8,.cls-9{isolation:isolate;}.cls-9{opacity:0.12;}.cls-10{opacity:0.25;}</style><linearGradient id="linear-gradient" x1="19.24" y1="2491.96" x2="4.43" y2="2477.15" gradientTransform="matrix(1, 0, 0, -1, 0, 2499.65)" gradientUnits="userSpaceOnUse"><stop offset="0" stop-color="#00a0ff"/><stop offset="0.01" stop-color="#00a1ff"/><stop offset="0.26" stop-color="#00beff"/><stop offset="0.51" stop-color="#00d2ff"/><stop offset="0.76" stop-color="#00dfff"/><stop offset="1" stop-color="#00e3ff"/></linearGradient><linearGradient id="linear-gradient-2" x1="29.86" y1="2482" x2="8.51" y2="2482" gradientTransform="matrix(1, 0, 0, -1, 0, 2499.65)" gradientUnits="userSpaceOnUse"><stop offset="0" stop-color="#ffe000"/><stop offset="0.41" stop-color="#ffbd00"/><stop offset="0.78" stop-color="orange"/><stop offset="1" stop-color="#ff9c00"/></linearGradient><linearGradient id="linear-gradient-3" x1="21.91" y1="2479.97" x2="1.83" y2="2459.89" gradientTransform="matrix(1, 0, 0, -1, 0, 2499.65)" gradientUnits="userSpaceOnUse"><stop offset="0" stop-color="#ff3a44"/><stop offset="1" stop-color="#c31162"/></linearGradient><linearGradient id="linear-gradient-4" x1="6.44" y1="2499.49" x2="15.41" y2="2490.53" gradientTransform="matrix(1, 0, 0, -1, 0, 2499.65)" gradientUnits="userSpaceOnUse"><stop offset="0" stop-color="#32a071"/><stop offset="0.07" stop-color="#2da771"/><stop offset="0.48" stop-color="#15cf74"/><stop offset="0.8" stop-color="#06e775"/><stop offset="1" stop-color="#00f076"/></linearGradient></defs><title>and</title><g id="Layer_2" data-name="Layer 2"><g id="이벤트1"><rect width="119.14" height="35.3" rx="4.41"/><path class="cls-1" d="M114.73.71a3.7,3.7,0,0,1,3.7,3.7V30.89a3.7,3.7,0,0,1-3.7,3.7H4.41a3.7,3.7,0,0,1-3.7-3.7V4.41A3.7,3.7,0,0,1,4.41.71H114.73m0-.71H4.41A4.43,4.43,0,0,0,0,4.41V30.89A4.43,4.43,0,0,0,4.41,35.3H114.73a4.43,4.43,0,0,0,4.41-4.41V4.41A4.43,4.43,0,0,0,114.73,0Z"/><path class="cls-2" d="M41.85,9a2.39,2.39,0,0,1-.66,1.77,2.58,2.58,0,0,1-1.95.78,2.73,2.73,0,0,1-2.75-2.76,2.73,2.73,0,0,1,2.75-2.77,2.69,2.69,0,0,1,1.09.22,2.26,2.26,0,0,1,.83.59l-.47.47a1.78,1.78,0,0,0-1.45-.63,2.05,2.05,0,0,0-2.05,2.12,2.08,2.08,0,0,0,3.53,1.52,1.67,1.67,0,0,0,.45-1.07H39.24V8.64h2.57A2.85,2.85,0,0,1,41.85,9Z"/><path class="cls-2" d="M45.91,6.83H43.5V8.51h2.18v.63H43.5v1.68h2.41v.65H42.82V6.18h3.09Z"/><path class="cls-2" d="M48.78,11.47H48.1V6.83H46.62V6.18h3.64v.65H48.78Z"/><path class="cls-2" d="M52.9,11.47V6.18h.68v5.29Z"/><path class="cls-2" d="M56.59,11.47h-.68V6.83H54.43V6.18h3.64v.65H56.59Z"/><path class="cls-2" d="M65,10.79a2.75,2.75,0,0,1-3.88,0,2.72,2.72,0,0,1-.78-2,2.72,2.72,0,0,1,.78-2,2.74,2.74,0,0,1,3.88,0,2.7,2.7,0,0,1,.78,2A2.72,2.72,0,0,1,65,10.79Zm-3.38-.45a2,2,0,0,0,2.88,0,2.06,2.06,0,0,0,.59-1.51,2.07,2.07,0,0,0-.59-1.52,2,2,0,0,0-2.88,0A2.07,2.07,0,0,0,61,8.83,2.06,2.06,0,0,0,61.58,10.34Z"/><path class="cls-2" d="M66.7,11.47V6.18h.82L70.1,10.3h0l0-1V6.18h.68v5.29h-.71L67.38,7.15h0l0,1v3.3Z"/><path class="cls-3" d="M60.13,19.2A3.75,3.75,0,1,0,63.9,23,3.69,3.69,0,0,0,60.13,19.2Zm0,6A2.28,2.28,0,1,1,62.25,23,2.16,2.16,0,0,1,60.13,25.22Zm-8.22-6A3.75,3.75,0,1,0,55.68,23,3.7,3.7,0,0,0,51.91,19.2Zm0,6A2.28,2.28,0,1,1,54,23,2.16,2.16,0,0,1,51.91,25.22Zm-9.78-4.87v1.59h3.81a3.29,3.29,0,0,1-.86,2,3.89,3.89,0,0,1-2.95,1.17,4.24,4.24,0,0,1,0-8.47A4.08,4.08,0,0,1,45,17.77l1.12-1.12a5.56,5.56,0,0,0-4-1.61,5.83,5.83,0,1,0,0,11.66,5.34,5.34,0,0,0,4.07-1.63,5.27,5.27,0,0,0,1.38-3.73,4.84,4.84,0,0,0-.09-1Zm40,1.23a3.49,3.49,0,0,0-3.21-2.38A3.56,3.56,0,0,0,75.37,23a3.67,3.67,0,0,0,3.72,3.75A3.74,3.74,0,0,0,82.22,25l-1.28-.85a2.15,2.15,0,0,1-1.85,1,1.9,1.9,0,0,1-1.82-1.13l5-2.08ZM77,22.84a2.06,2.06,0,0,1,2-2.19,1.46,1.46,0,0,1,1.4.79Zm-4.08,3.64h1.65v-11H72.92ZM70.22,20h-.06a2.6,2.6,0,0,0-2-.83,3.75,3.75,0,0,0,0,7.5,2.57,2.57,0,0,0,2-.85h.06v.54a1.92,1.92,0,0,1-2,2.2,2.08,2.08,0,0,1-1.89-1.33l-1.43.59a3.56,3.56,0,0,0,3.32,2.22c1.94,0,3.57-1.13,3.57-3.91V19.42H70.22Zm-1.89,5.19A2.15,2.15,0,0,1,66.24,23a2.17,2.17,0,0,1,2.09-2.29,2.12,2.12,0,0,1,2,2.29A2.09,2.09,0,0,1,68.33,25.22Zm21.51-9.78H85.9v11h1.64V22.3h2.3a3.43,3.43,0,1,0,0-6.86Zm0,5.32H87.54V17h2.35a1.89,1.89,0,1,1,0,3.78Zm10.17-1.58a3.08,3.08,0,0,0-2.93,1.68l1.46.62a1.54,1.54,0,0,1,1.5-.81,1.58,1.58,0,0,1,1.73,1.42v.11a3.58,3.58,0,0,0-1.71-.43c-1.58,0-3.18.87-3.18,2.49a2.55,2.55,0,0,0,2.74,2.42,2.34,2.34,0,0,0,2.1-1.07h0v.85h1.59V22.23C103.41,20.27,102,19.18,100.06,19.18Zm-.2,6c-.53,0-1.29-.27-1.29-.93,0-.86.94-1.18,1.75-1.18a2.86,2.86,0,0,1,1.5.37A2,2,0,0,1,99.86,25.22Zm9.34-5.8-1.88,4.78h-.06l-2-4.78h-1.77l2.93,6.68-1.67,3.72h1.72L111,19.42ZM94.37,26.48H96v-11H94.37Z"/><path class="cls-4" d="M9.21,6.65A1.76,1.76,0,0,0,8.8,7.89V27.41a1.74,1.74,0,0,0,.41,1.24l.06.06L20.21,17.78v-.26L9.27,6.59Z"/><path class="cls-5" d="M23.85,21.43l-3.64-3.65v-.26l3.64-3.64.09,0,4.31,2.46c1.24.7,1.24,1.84,0,2.55l-4.31,2.45Z"/><path class="cls-6" d="M23.94,21.38l-3.73-3.73-11,11A1.43,1.43,0,0,0,11,28.7l12.9-7.32"/><path class="cls-7" d="M23.94,13.92,11,6.6a1.43,1.43,0,0,0-1.83.05l11,11Z"/><path class="cls-8" d="M23.85,21.3,11,28.57a1.47,1.47,0,0,1-1.77,0h0l-.06.07h0l.06.06h0a1.47,1.47,0,0,0,1.77,0l12.9-7.32Z"/><path class="cls-9" d="M9.21,28.52a1.74,1.74,0,0,1-.41-1.24v.13a1.74,1.74,0,0,0,.41,1.24l.06-.07Z"/><path class="cls-9" d="M28.25,18.8l-4.4,2.5.09.08,4.31-2.45a1.57,1.57,0,0,0,.93-1.28h0A1.65,1.65,0,0,1,28.25,18.8Z"/><path class="cls-10" d="M11,6.73l17.21,9.78a1.62,1.62,0,0,1,.93,1.14h0a1.55,1.55,0,0,0-.93-1.27L11,6.6C9.81,5.9,8.8,6.48,8.8,7.89V8C8.8,6.61,9.81,6,11,6.73Z"/></g></g></svg>