<svg xmlns="http://www.w3.org/2000/svg" xmlns:xlink="http://www.w3.org/1999/xlink" viewBox="0 0 60.06 26.55"><defs><style>.cls-1{fill:url(#linear-gradient);}</style><linearGradient id="linear-gradient" x1="1698.44" y1="-10.71" x2="1698.44" y2="36.54" gradientTransform="matrix(-1, 0, 0, 1, 1728.47, 0)" gradientUnits="userSpaceOnUse"><stop offset="0" stop-color="#e9c446"/><stop offset="0.5" stop-color="#fed856"/><stop offset="0.5" stop-color="#cea43b"/><stop offset="1" stop-color="#bb8e33"/></linearGradient></defs><title>btn_02</title><g id="Layer_2" data-name="Layer 2"><g id="이벤트1"><path class="cls-1" d="M7.74,7.14l3.43,3,1.12-.89L23.47.44A2,2,0,0,1,25.75.3l7.73,4.75,1.35.82,4,2.47,1.34.82,3.47,2.14a2.37,2.37,0,0,1,0,4l-3.47,2.13-1.34.82,1.24,1,1.73,1.36,11.86-7.28L41.82,6,40.09,7.36l-4-2.47,4.36-3.45a2,2,0,0,1,2.29-.14L59,11.3a2.37,2.37,0,0,1,0,4l-16.27,10a2,2,0,0,1-2.29-.14l-4.36-3.44-1.24-1-1.35.83-7.73,4.75a2,2,0,0,1-1,.29,1.92,1.92,0,0,1-1.24-.44L13.13,18a.89.89,0,0,1,0-1.37l.52-.46L15,15l.16-.15a.91.91,0,0,1,1.15,0l8.59,6.79,4.9-3,1.34-.83-1.24-1-2.07-1.63a2.38,2.38,0,0,1,0-3.68l1.58-1.25a.89.89,0,0,1,1-.06l3.49,2.14-1.27,1,1.27,1,1.24,1,1.34-.82,1.9-1.16-1.9-1.17-1.34-.82-4-2.47L29.75,8l-4.9-3-10.3,8.14L7.24,18.9a.59.59,0,0,1-.77,0L3.75,16.49.21,13.37a.6.6,0,0,1,0-.93L7,7.12A.62.62,0,0,1,7.74,7.14Z"/></g></g></svg>