<svg xmlns="http://www.w3.org/2000/svg" xmlns:xlink="http://www.w3.org/1999/xlink" viewBox="0 0 60.06 26.55"><defs><style>.cls-1{fill:url(#linear-gradient);}</style><linearGradient id="linear-gradient" x1="1302.55" y1="-10.71" x2="1302.55" y2="36.54" gradientTransform="translate(-1272.52)" gradientUnits="userSpaceOnUse"><stop offset="0" stop-color="#e9c446"/><stop offset="0.5" stop-color="#fed856"/><stop offset="0.5" stop-color="#cea43b"/><stop offset="1" stop-color="#bb8e33"/></linearGradient></defs><title>btn_01</title><g id="Layer_2" data-name="Layer 2"><g id="이벤트1"><path class="cls-1" d="M52.32,7.14l-3.43,3-1.12-.89L36.59.44A2,2,0,0,0,34.31.3L26.57,5.05l-1.34.82-4,2.47-1.34.82L16.4,11.3a2.37,2.37,0,0,0,0,4l3.47,2.13,1.34.82L20,19.2l-1.73,1.36L6.38,13.28,18.24,6,20,7.36l4-2.47L19.63,1.44a2,2,0,0,0-2.29-.14L1.07,11.3a2.37,2.37,0,0,0,0,4l16.27,10a2,2,0,0,0,2.29-.14L24,21.67l1.24-1,1.34.83,7.74,4.75a2,2,0,0,0,2.28-.15L46.93,18a.9.9,0,0,0,0-1.37l-.52-.46L45.11,15,45,14.8a.91.91,0,0,0-1.15,0l-8.6,6.79-4.89-3L29,17.73l1.24-1,2.07-1.63a2.38,2.38,0,0,0,0-3.68L30.7,10.19a.89.89,0,0,0-1-.06l-3.49,2.14,1.27,1-1.27,1-1.24,1-1.34-.82-1.9-1.16,1.9-1.17L25,11.29l4-2.47L30.31,8,35.2,5l10.31,8.14,7.3,5.77a.61.61,0,0,0,.78,0l2.71-2.39,3.55-3.12a.6.6,0,0,0,0-.93L53.1,7.12A.62.62,0,0,0,52.32,7.14Z"/></g></g></svg>