<svg xmlns="http://www.w3.org/2000/svg" xmlns:xlink="http://www.w3.org/1999/xlink" viewBox="0 0 218.4 58.92"><defs><style>.cls-1{fill:url(#linear-gradient);}.cls-2{fill:url(#linear-gradient-2);}.cls-3{fill:red;}.cls-4{fill:#860000;}.cls-5{fill:#ff4533;}.cls-6{fill:#9c0000;}</style><linearGradient id="linear-gradient" x1="109.2" y1="6.4" x2="109.2" y2="55.16" gradientTransform="translate(79.74 138.66) rotate(-90)" gradientUnits="userSpaceOnUse"><stop offset="0" stop-color="#e5041f"/><stop offset="0.03" stop-color="#dc071e"/><stop offset="0.08" stop-color="#c20e1b"/><stop offset="0.12" stop-color="#a41717"/><stop offset="0.89" stop-color="#390000"/><stop offset="1" stop-color="#590100"/></linearGradient><linearGradient id="linear-gradient-2" x1="109.2" y1="1.06" x2="109.2" y2="57.1" gradientUnits="userSpaceOnUse"><stop offset="0" stop-color="#e9c446"/><stop offset="0.5" stop-color="#fed856"/><stop offset="0.5" stop-color="#cea43b"/><stop offset="1" stop-color="#bb8e33"/></linearGradient></defs><title>check_btn</title><g id="Layer_2" data-name="Layer 2"><g id="이벤트1"><rect class="cls-1" x="83.35" y="-76.41" width="51.7" height="211.74" rx="8.66" transform="translate(138.66 -79.74) rotate(90)"/><path class="cls-2" d="M201.12,0H17.28A17.3,17.3,0,0,0,0,17.28V41.64A17.3,17.3,0,0,0,17.28,58.92H201.12A17.3,17.3,0,0,0,218.4,41.64V17.28A17.3,17.3,0,0,0,201.12,0Zm12.57,41.64a12.57,12.57,0,0,1-12.57,12.57H17.28A12.57,12.57,0,0,1,4.71,41.64c0-3.12,9.52-12.18,9.52-12.18S4.71,21.82,4.71,17.28A12.57,12.57,0,0,1,17.28,4.71H201.12a12.57,12.57,0,0,1,12.57,12.57c0,4.54-9.52,12.18-9.52,12.18S213.69,38.52,213.69,41.64Z"/><polygon class="cls-3" points="218.21 29.46 218.24 29.43 214.41 24.64 213.97 29.46 218.21 29.46"/><polygon class="cls-4" points="214.41 24.64 206.09 29.43 206.14 29.46 213.97 29.46 214.41 24.64"/><polygon class="cls-5" points="218.21 29.46 218.24 29.49 214.41 34.28 213.97 29.46 218.21 29.46"/><polygon class="cls-6" points="214.41 34.28 206.09 29.49 206.14 29.46 213.97 29.46 214.41 34.28"/><polygon class="cls-3" points="0.19 29.46 0.17 29.43 3.99 24.64 4.43 29.46 0.19 29.46"/><polygon class="cls-4" points="3.99 24.64 12.31 29.43 12.26 29.46 4.43 29.46 3.99 24.64"/><polygon class="cls-5" points="0.19 29.46 0.17 29.49 3.99 34.28 4.43 29.46 0.19 29.46"/><polygon class="cls-6" points="3.99 34.28 12.31 29.49 12.26 29.46 4.43 29.46 3.99 34.28"/></g></g></svg>