<svg xmlns="http://www.w3.org/2000/svg" viewBox="0 0 117.73 38.51"><defs><style>.cls-1{fill:#fff;}</style></defs><title>ios</title><g id="Layer_2" data-name="Layer 2"><g id="이벤트1"><rect width="117.73" height="38.51" rx="5.2"/><path class="cls-1" d="M30.7,25.45A18.64,18.64,0,0,1,29,28.67c-1.12,1.71-2.7,3.83-4.66,3.85-1.73,0-2.18-1.13-4.54-1.12s-2.85,1.14-4.59,1.12c-1.95,0-3.45-1.93-4.57-3.64C7.49,24.12,7.16,18.52,9.1,15.55a6.92,6.92,0,0,1,5.57-3.35c2.07,0,3.37,1.14,5.09,1.14s2.67-1.14,5.07-1.14a6.76,6.76,0,0,1,5.1,2.69A5.83,5.83,0,0,0,30.7,25.45Z"/><path class="cls-1" d="M23,10.29A5.79,5.79,0,0,0,24.3,6a6.23,6.23,0,0,0-4.05,2.18,5.38,5.38,0,0,0-1.33,4.2A5.29,5.29,0,0,0,23,10.29Z"/><path class="cls-1" d="M40.24,15.48l-4.49,13.2h2.06l1.34-4.05h4.34l1.38,4.05H47l-4.51-13.2Zm1.06,2.17c.15.59.32,1.2.53,1.86L43,23H39.6l1.19-3.52C41,18.92,41.14,18.3,41.3,17.65Z"/><path class="cls-1" d="M52.78,18.9a3.77,3.77,0,0,0-3.18,1.52l-.08-1.31H47.7v.17c0,.82.07,1.72.07,3V32.47h2V27.72a3.51,3.51,0,0,0,2.73,1.17,4.12,4.12,0,0,0,3-1.29,5.47,5.47,0,0,0,1.34-3.84,5.34,5.34,0,0,0-1.17-3.51A3.79,3.79,0,0,0,52.78,18.9Zm-.5,1.65c1.78,0,2.58,1.65,2.58,3.29,0,2.11-1,3.42-2.65,3.42a2.43,2.43,0,0,1-2.36-1.86,2.84,2.84,0,0,1-.07-.64V23.15a2.22,2.22,0,0,1,.07-.49,1,1,0,0,0,0-.17A2.54,2.54,0,0,1,52.28,20.55Z"/><path class="cls-1" d="M63.06,18.9a3.75,3.75,0,0,0-3.17,1.52l-.08-1.31H58v.17c.06.82.08,1.72.08,3V32.47h2V27.72a3.51,3.51,0,0,0,2.73,1.17,4.15,4.15,0,0,0,3-1.29,5.46,5.46,0,0,0,1.33-3.84A5.34,5.34,0,0,0,66,20.25,3.81,3.81,0,0,0,63.06,18.9Zm-.49,1.65c1.78,0,2.57,1.65,2.57,3.29,0,2.11-1,3.42-2.65,3.42a2.41,2.41,0,0,1-2.35-1.86,2.36,2.36,0,0,1-.07-.64V23.15a3,3,0,0,1,.06-.49l0-.17A2.54,2.54,0,0,1,62.57,20.55Z"/><path class="cls-1" d="M76,21.07c-1.86-.72-2.46-1.29-2.46-2.34,0-.88.7-1.77,2.27-1.77a4.5,4.5,0,0,1,2.34.59l.17.1L78.84,16l-.11-.07a5.78,5.78,0,0,0-2.91-.65c-2.55,0-4.33,1.5-4.33,3.65,0,1.74,1.11,2.95,3.51,3.82,1.69.64,2.32,1.29,2.32,2.4s-1,2-2.54,2a5.46,5.46,0,0,1-2.88-.82l-.17-.11L71.2,28l.09.06a6.81,6.81,0,0,0,3.38.87c3.43,0,4.65-2.09,4.65-3.89S78.34,22,76,21.07Z"/><path class="cls-1" d="M82.91,16.84l-2,.61v1.66H79.52v1.6H81V25.6a3.7,3.7,0,0,0,.69,2.53,2.54,2.54,0,0,0,1.93.76,4.65,4.65,0,0,0,1.54-.24l.12,0-.1-1.6-.19.06a2.91,2.91,0,0,1-.93.11c-.77,0-1.11-.49-1.11-1.64V20.71h2.41v-1.6H82.91Z"/><path class="cls-1" d="M90.27,18.9c-2.79,0-4.74,2.09-4.74,5.07s1.89,4.92,4.59,4.92h0a4.71,4.71,0,0,0,4.75-5.09,5,5,0,0,0-1.28-3.53A4.41,4.41,0,0,0,90.27,18.9Zm0,1.58c1.79,0,2.61,1.75,2.61,3.38,0,2-1.12,3.45-2.65,3.45h0c-1.52,0-2.62-1.43-2.62-3.39C87.54,22.2,88.37,20.48,90.22,20.48Z"/><path class="cls-1" d="M101,19l-.12,0a2.05,2.05,0,0,0-.49-.06,2.86,2.86,0,0,0-2.51,1.61l-.06-1.4H96v.17c.06.79.08,1.68.08,2.88l0,6.52h2V23.59a6,6,0,0,1,.05-.77,2.21,2.21,0,0,1,2.1-2,4.26,4.26,0,0,1,.54,0l.21,0Z"/><path class="cls-1" d="M105.49,18.88c-2.65,0-4.51,2.13-4.51,5.17a4.47,4.47,0,0,0,4.71,4.82,7.59,7.59,0,0,0,3.16-.61l.12-.05-.39-1.49-.16.07a6.23,6.23,0,0,1-2.5.45,2.79,2.79,0,0,1-3-2.9l6.45,0,0-.13a4.41,4.41,0,0,0,.06-.83C109.46,21.32,108.42,18.88,105.49,18.88Zm-.13,1.52a2,2,0,0,1,1.47.56,2.93,2.93,0,0,1,.69,1.86H103A2.56,2.56,0,0,1,105.36,20.4Z"/><path class="cls-1" d="M35.75,6.46a15.4,15.4,0,0,1,1.92-.13,4.27,4.27,0,0,1,2.81.77,2.73,2.73,0,0,1,1,2.25,3.15,3.15,0,0,1-1,2.43,4.6,4.6,0,0,1-3.08.9,15.49,15.49,0,0,1-1.64-.07ZM36.66,12a6.07,6.07,0,0,0,.91,0c1.91,0,3-1,3-2.65,0-1.49-.91-2.41-2.81-2.41a6.39,6.39,0,0,0-1.05.08Z"/><path class="cls-1" d="M44.68,12.73a2.25,2.25,0,0,1-2.39-2.31A2.31,2.31,0,0,1,44.76,8a2.23,2.23,0,0,1,2.4,2.3,2.32,2.32,0,0,1-2.47,2.39Zm0-.61a1.6,1.6,0,0,0,1.52-1.76,1.52,1.52,0,1,0-3,0,1.58,1.58,0,0,0,1.49,1.73Z"/><path class="cls-1" d="M48.6,8.14l.67,2.27c.13.5.27,1,.36,1.44h0c.11-.46.28-.94.44-1.43l.82-2.28h.76l.77,2.24a13.86,13.86,0,0,1,.44,1.47h0a10.91,10.91,0,0,1,.38-1.46L54,8.14h.89l-1.6,4.49h-.83l-.76-2.15A14.83,14.83,0,0,1,51.28,9h0a12.39,12.39,0,0,1-.46,1.49L50,12.63h-.82L47.67,8.14Z"/><path class="cls-1" d="M55.82,9.35c0-.47,0-.84,0-1.21h.8l.05.73h0A1.89,1.89,0,0,1,58.3,8,1.71,1.71,0,0,1,60.06,10v2.68h-.9V10c0-.72-.3-1.34-1.16-1.34a1.29,1.29,0,0,0-1.21.84,1.12,1.12,0,0,0-.06.38v2.71h-.91Z"/><path class="cls-1" d="M61.54,6h.9v6.59h-.9Z"/><path class="cls-1" d="M66,12.73a2.25,2.25,0,0,1-2.39-2.31A2.31,2.31,0,0,1,66.06,8a2.23,2.23,0,0,1,2.4,2.3A2.33,2.33,0,0,1,66,12.73Zm0-.61a1.6,1.6,0,0,0,1.51-1.76A1.56,1.56,0,0,0,66,8.65a1.57,1.57,0,0,0-1.53,1.74A1.58,1.58,0,0,0,66,12.12Z"/><path class="cls-1" d="M73.12,11.55a7.08,7.08,0,0,0,.07,1.08h-.82l-.08-.57h0a1.92,1.92,0,0,1-1.52.67,1.36,1.36,0,0,1-1.53-1.29c0-1.09,1.07-1.68,3-1.67V9.68c0-.37-.11-1-1.13-1A2.62,2.62,0,0,0,69.77,9l-.21-.54A3.41,3.41,0,0,1,71.21,8a1.67,1.67,0,0,1,1.91,1.83Zm-.89-1.21c-1,0-2.11.13-2.11,1a.75.75,0,0,0,.84.77,1.27,1.27,0,0,0,1.23-.75.75.75,0,0,0,0-.26Z"/><path class="cls-1" d="M78.87,6v5.43a10.33,10.33,0,0,0,0,1.16H78.1l0-.78h0a1.87,1.87,0,0,1-1.69.88,2.14,2.14,0,0,1-2.14-2.28A2.23,2.23,0,0,1,76.44,8,1.72,1.72,0,0,1,78,8.71h0V6ZM78,10a1.39,1.39,0,0,0,0-.35,1.31,1.31,0,0,0-1.31-.93,1.54,1.54,0,0,0-1.5,1.72,1.49,1.49,0,0,0,1.48,1.67,1.35,1.35,0,0,0,1.33-1,1.42,1.42,0,0,0,0-.36Z"/><path class="cls-1" d="M84.59,12.73a2.25,2.25,0,0,1-2.39-2.31A2.31,2.31,0,0,1,84.67,8a2.23,2.23,0,0,1,2.4,2.3,2.32,2.32,0,0,1-2.47,2.39Zm0-.61a1.6,1.6,0,0,0,1.52-1.76,1.52,1.52,0,1,0-3,0,1.58,1.58,0,0,0,1.49,1.73Z"/><path class="cls-1" d="M88.22,9.35c0-.47,0-.84,0-1.21H89l0,.73h0A1.89,1.89,0,0,1,90.7,8,1.71,1.71,0,0,1,92.46,10v2.68h-.91V10c0-.72-.29-1.34-1.15-1.34a1.28,1.28,0,0,0-1.21.84.92.92,0,0,0-.07.38v2.71h-.9Z"/><path class="cls-1" d="M97.21,7.06V8.14h1.3v.62h-1.3v2.42c0,.56.18.87.68.87a1.79,1.79,0,0,0,.53-.06l0,.63a3,3,0,0,1-.81.11,1.36,1.36,0,0,1-1-.35,1.64,1.64,0,0,1-.35-1.17V8.76h-.77V8.14h.77V7.31Z"/><path class="cls-1" d="M99.53,6h.9v2.8h0a1.55,1.55,0,0,1,.64-.57A1.91,1.91,0,0,1,102,8,1.7,1.7,0,0,1,103.77,10v2.67h-.9V10.05c0-.73-.3-1.34-1.16-1.34a1.28,1.28,0,0,0-1.21.82.78.78,0,0,0-.07.39v2.71h-.9Z"/><path class="cls-1" d="M105.76,10.52a1.52,1.52,0,0,0,1.7,1.56,3.79,3.79,0,0,0,1.38-.22l.17.57a4.46,4.46,0,0,1-1.67.29,2.22,2.22,0,0,1-2.46-2.26A2.28,2.28,0,0,1,107.23,8a2,2,0,0,1,2,2.11,1.92,1.92,0,0,1,0,.39Zm2.65-.58a1.21,1.21,0,0,0-1.25-1.33,1.41,1.41,0,0,0-1.39,1.33Z"/></g></g></svg>