<svg xmlns="http://www.w3.org/2000/svg" viewBox="0 0 134 40"><defs><style>.cls-1{isolation:isolate;}.cls-2{fill:#1ec800;}.cls-3{fill:#1eb400;opacity:0.6;mix-blend-mode:multiply;}.cls-4,.cls-5{fill:#fff;}.cls-4{opacity:0.25;}</style></defs><title>naver</title><g class="cls-1"><g id="Layer_2" data-name="Layer 2"><g id="Button"><rect class="cls-2" width="134" height="40" rx="3.45"/><rect class="cls-3" x="39.43" y="0.57" width="0.57" height="38.86"/><rect class="cls-4" x="40" y="0.57" width="0.57" height="38.86"/><path class="cls-3" d="M130.55.57a2.88,2.88,0,0,1,2.88,2.88v33.1a2.88,2.88,0,0,1-2.88,2.88H3.45A2.88,2.88,0,0,1,.57,36.55V3.45A2.88,2.88,0,0,1,3.45.57h127.1m0-.57H3.45A3.46,3.46,0,0,0,0,3.45v33.1A3.46,3.46,0,0,0,3.45,40h127.1A3.46,3.46,0,0,0,134,36.55V3.45A3.46,3.46,0,0,0,130.55,0Z"/><polygon class="cls-5" points="23.04 11.25 23.04 20.08 16.99 11.25 10.45 11.25 10.45 28.75 16.96 28.75 16.96 19.92 23.01 28.75 29.55 28.75 29.55 11.25 23.04 11.25"/><path class="cls-5" d="M48.61,22.4a14.06,14.06,0,0,0,1.83-.12,15.3,15.3,0,0,0,1.79-.35v1.48a12.63,12.63,0,0,1-1.92.36,19.1,19.1,0,0,1-2.15.12h-1.3V15.37h1.75Zm4.2-7.82H54.5V27.09H52.81V19.9H50.45V18.44h2.36Zm4.48,12.83H55.61v-13h1.68Z"/><path class="cls-5" d="M65.46,19.87a7.27,7.27,0,0,1-.25,2,4.35,4.35,0,0,1-.69,1.47,2.89,2.89,0,0,1-1.07.91,3.29,3.29,0,0,1-2.79,0,2.89,2.89,0,0,1-1.07-.91,4.35,4.35,0,0,1-.69-1.47,7.67,7.67,0,0,1-.25-2,7.56,7.56,0,0,1,.25-2,4.41,4.41,0,0,1,.69-1.48,3.08,3.08,0,0,1,1.07-.91,3.29,3.29,0,0,1,2.79,0,3.08,3.08,0,0,1,1.07.91,4.41,4.41,0,0,1,.69,1.48A7.17,7.17,0,0,1,65.46,19.87Zm-1.77,0a5.47,5.47,0,0,0-.42-2.37,1.32,1.32,0,0,0-1.21-.85,1.31,1.31,0,0,0-1.21.85,5.31,5.31,0,0,0-.43,2.37,5.26,5.26,0,0,0,.43,2.36,1.32,1.32,0,0,0,1.21.86,1.34,1.34,0,0,0,1.21-.86A5.42,5.42,0,0,0,63.69,19.87Zm3.59-5.43H69v13H67.28Z"/><path class="cls-5" d="M77,18.85h2.3V14.44h1.74v13H79.33V20.32H77V24H71V15.39h1.77V18.5h2.57V15.39H77Zm-1.7,1.07H72.72v2.64h2.61Z"/><path class="cls-5" d="M86.47,24.67l-1-.8a8.54,8.54,0,0,0,1.26-1.14,6.14,6.14,0,0,0,1-1.43,7,7,0,0,0,.56-1.81,9.77,9.77,0,0,0,.1-2.28h1.41a12.54,12.54,0,0,1,0,1.39,12.13,12.13,0,0,1-.18,1.27A7.8,7.8,0,0,0,90.66,22a7.58,7.58,0,0,0,1.73,1.59l-.91.93A7.93,7.93,0,0,1,89,21.63a7.21,7.21,0,0,1-1,1.68A8.62,8.62,0,0,1,86.47,24.67Zm9-3.27H93.88v5.4H92.52V16.6h1.36v3.63H95.5Z"/><path class="cls-5" d="M96.53,17.22h3.11l1.48,0a6.66,6.66,0,0,1-.35,1.61,6.82,6.82,0,0,1-.65,1.36,7.22,7.22,0,0,0,1.07,1,6.74,6.74,0,0,0,1.15.72l-.82,1a7.48,7.48,0,0,1-2.11-1.74,8.37,8.37,0,0,1-1.23,1.06,12,12,0,0,1-1.46.87l-.88-1a9.54,9.54,0,0,0,1.5-.84,7.81,7.81,0,0,0,1.12-.94,4.78,4.78,0,0,0,.73-1,3.23,3.23,0,0,0,.33-1l-.91,0H96.53Zm8,9.38H97.94v-3h1.38v1.87h5.2Zm-3.18-6.18V19.25H103V16.6h1.36v7.46H103V20.42Z"/><path class="cls-5" d="M110.83,23h-1a1.92,1.92,0,0,1-1.94,1.58,1.79,1.79,0,0,1-1.66-.94,5.52,5.52,0,0,1-.54-2.72,5.48,5.48,0,0,1,.54-2.73,1.77,1.77,0,0,1,1.66-.92,1.86,1.86,0,0,1,1.21.37,2.3,2.3,0,0,1,.71,1.11h1.07v-2h1.25v9.84h-1.25Zm-2.07-2.08a6.16,6.16,0,0,0-.21-1.82c-.13-.43-.37-.64-.71-.64s-.55.21-.67.64a7.72,7.72,0,0,0-.17,1.82,7.75,7.75,0,0,0,.17,1.83c.12.43.34.65.67.65s.58-.22.71-.65A6.19,6.19,0,0,0,108.76,20.87Zm1.23.94h.85v-2H110c0,.16,0,.32,0,.49s0,.35,0,.53,0,.33,0,.48S110,21.66,110,21.81Zm4.06,5h-1.28V16.6h1.28Z"/><path class="cls-5" d="M115.11,19.44a2.43,2.43,0,0,1,.2-1,2.46,2.46,0,0,1,.55-.83,2.51,2.51,0,0,1,.83-.55,2.65,2.65,0,0,1,1.07-.21,2.7,2.7,0,0,1,1.08.21,2.62,2.62,0,0,1,1.39,3.41,2.38,2.38,0,0,1-.55.81,2.61,2.61,0,0,1-.84.55,2.88,2.88,0,0,1-1.08.19,2.83,2.83,0,0,1-1.07-.19,2.67,2.67,0,0,1-.83-.55,2.32,2.32,0,0,1-.55-.82A2.43,2.43,0,0,1,115.11,19.44Zm6.47,7.38V24.08h-5.22V23h6.57v3.86Zm-5.12-7.38a1.57,1.57,0,0,0,.35,1,1.22,1.22,0,0,0,1,.39,1.25,1.25,0,0,0,1-.39,1.75,1.75,0,0,0,0-2.1,1.22,1.22,0,0,0-1-.4,1.19,1.19,0,0,0-.94.4A1.52,1.52,0,0,0,116.46,19.44Zm6.47-1.54h1.48V19h-1.49V20h1.49v1.11h-1.48v1.47h-1.35V16.6h1.35Z"/></g></g></g></svg>