<svg xmlns="http://www.w3.org/2000/svg" viewBox="0 0 134 40"><defs><style>.cls-1{isolation:isolate;}.cls-2{fill:#1ec800;}.cls-3{fill:#1eb400;opacity:0.6;mix-blend-mode:multiply;}.cls-4,.cls-5{fill:#fff;}.cls-4{opacity:0.25;}</style></defs><title>naver</title><g class="cls-1"><g id="Layer_2" data-name="Layer 2"><g id="Button"><rect class="cls-2" width="134" height="40" rx="3.45"/><rect class="cls-3" x="39.43" y="0.57" width="0.57" height="38.86"/><rect class="cls-4" x="40" y="0.57" width="0.57" height="38.86"/><path class="cls-3" d="M130.55.57a2.88,2.88,0,0,1,2.88,2.88v33.1a2.88,2.88,0,0,1-2.88,2.88H3.45A2.88,2.88,0,0,1,.57,36.55V3.45A2.88,2.88,0,0,1,3.45.57h127.1m0-.57H3.45A3.46,3.46,0,0,0,0,3.45v33.1A3.46,3.46,0,0,0,3.45,40h127.1A3.46,3.46,0,0,0,134,36.55V3.45A3.46,3.46,0,0,0,130.55,0Z"/><polygon class="cls-5" points="23.04 11.25 23.04 20.08 16.99 11.25 10.45 11.25 10.45 28.75 16.96 28.75 16.96 19.92 23.01 28.75 29.55 28.75 29.55 11.25 23.04 11.25"/><path class="cls-5" d="M55.14,24.64l-1.35-1.08A11.59,11.59,0,0,0,55.51,22a8.4,8.4,0,0,0,1.3-2,9.65,9.65,0,0,0,.76-2.47,13.43,13.43,0,0,0,.14-3.11h1.92a16.83,16.83,0,0,1-.05,1.9,17.33,17.33,0,0,1-.25,1.72,10.28,10.28,0,0,0,1.53,2.84,10,10,0,0,0,2.35,2.17L62,24.37a10.9,10.9,0,0,1-3.41-3.86,9.6,9.6,0,0,1-1.43,2.29A10.92,10.92,0,0,1,55.14,24.64Zm12.32-4.45H65.25v7.37H63.39V13.65h1.86v5h2.21Z"/><path class="cls-5" d="M71,14.49h4.23l2,0a9.73,9.73,0,0,1-.47,2.2,9.61,9.61,0,0,1-.9,1.85,9.45,9.45,0,0,0,1.46,1.36,10.26,10.26,0,0,0,1.57,1l-1.12,1.3A10.12,10.12,0,0,1,75,19.78a11.07,11.07,0,0,1-1.67,1.45,16.58,16.58,0,0,1-2,1.18l-1.2-1.32a12.78,12.78,0,0,0,2.05-1.15,10,10,0,0,0,1.52-1.28,6.16,6.16,0,0,0,1-1.34,4,4,0,0,0,.45-1.3l-1.24,0H71ZM81.93,27.28H73V23.16h1.88v2.55h7.09ZM77.6,18.85V17.27h2.2V13.65h1.86V23.82H79.8v-5Z"/><path class="cls-5" d="M92.7,22.31H91.27a2.64,2.64,0,0,1-2.64,2.16,2.42,2.42,0,0,1-2.26-1.29,7.55,7.55,0,0,1-.74-3.71,7.55,7.55,0,0,1,.73-3.73,2.44,2.44,0,0,1,2.27-1.25,2.53,2.53,0,0,1,1.64.51,3.11,3.11,0,0,1,1,1.52H92.7V13.8h1.71V27.21H92.7Zm-2.82-2.84A8.75,8.75,0,0,0,89.6,17c-.19-.59-.51-.88-1-.88s-.75.29-.91.88a9.86,9.86,0,0,0-.24,2.48,10,10,0,0,0,.24,2.5c.16.58.46.88.91.88s.78-.3,1-.88A8.91,8.91,0,0,0,89.88,19.47Zm1.68,1.27h1.15V18.07H91.56c0,.23,0,.45,0,.68s0,.47,0,.72,0,.45,0,.66S91.58,20.55,91.56,20.74Zm5.53,6.82H95.35V13.65h1.74Z"/><path class="cls-5" d="M100.71,17.52a3.54,3.54,0,0,1,.27-1.38,3.29,3.29,0,0,1,.75-1.12,3.13,3.13,0,0,1,1.14-.76,3.61,3.61,0,0,1,1.45-.28,3.75,3.75,0,0,1,1.48.28A3.35,3.35,0,0,1,107,15a3.44,3.44,0,0,1,.75,1.12A3.53,3.53,0,0,1,107,20a3.61,3.61,0,0,1-1.15.74,3.94,3.94,0,0,1-1.48.27,3.78,3.78,0,0,1-1.45-.27,3.36,3.36,0,0,1-1.14-.74A3.29,3.29,0,0,1,101,18.9,3.54,3.54,0,0,1,100.71,17.52Zm8.82,10.06V23.85h-7.11V22.32h9v5.26Zm-7-10.06a2.05,2.05,0,0,0,.48,1.42,1.61,1.61,0,0,0,1.29.54,1.64,1.64,0,0,0,1.32-.54,2.05,2.05,0,0,0,.48-1.42,2.08,2.08,0,0,0-.48-1.43,1.65,1.65,0,0,0-1.32-.55,1.61,1.61,0,0,0-1.28.55A2,2,0,0,0,102.55,17.52Zm8.82-2.1h2V17h-2v1.26h2v1.52h-2v2h-1.84V13.65h1.84Z"/></g></g></g></svg>