<svg xmlns="http://www.w3.org/2000/svg" viewBox="0 0 75.04 90"><defs><style>.cls-1{opacity:0.3;}.cls-2{fill:#fff;}</style></defs><g id="Layer_2" data-name="Layer 2"><g id="Layer_1-2" data-name="Layer 1"><g class="cls-1"><path class="cls-2" d="M24.74,15H8.07a.83.83,0,0,0-.83.83V29.17a4.17,4.17,0,0,0,3.33,4.08V37.5a2.5,2.5,0,0,0,5,0V33.33h1.67V37.5a2.5,2.5,0,0,0,5,0V33.25a4.17,4.17,0,0,0,3.33-4.08V15.83A.83.83,0,0,0,24.74,15Z"/><path class="cls-2" d="M20.76,4.44l1.41-3.28A.83.83,0,0,0,21.73.07a.83.83,0,0,0-1.09.44L19.23,3.79a9.09,9.09,0,0,0-5.65,0L12.17.51A.82.82,0,0,0,11.08.07a.83.83,0,0,0-.44,1.09L12,4.44a9.17,9.17,0,0,0-4.8,8.06.84.84,0,0,0,.83.84H24.74a.84.84,0,0,0,.83-.84A9.18,9.18,0,0,0,20.76,4.44ZM13.07,10a.83.83,0,1,1,.83-.83A.83.83,0,0,1,13.07,10Zm6.67,0a.83.83,0,1,1,0-1.66.83.83,0,0,1,0,1.66Z"/><path class="cls-2" d="M29.74,15a2.5,2.5,0,0,0-2.5,2.5v8.33a2.5,2.5,0,0,0,5,0V17.5A2.51,2.51,0,0,0,29.74,15Z"/><path class="cls-2" d="M3.07,15a2.5,2.5,0,0,0-2.5,2.5v8.33a2.5,2.5,0,0,0,5,0V17.5A2.5,2.5,0,0,0,3.07,15Z"/></g><g class="cls-1"><path class="cls-2" d="M10.88,90C4.92,90,0,77.81,0,71.62,0,61.51,7.58,59.3,10.51,59.3a12.06,12.06,0,0,1,4,1,9.17,9.17,0,0,0,2.26.64,7.25,7.25,0,0,0,1.63-.52,12.92,12.92,0,0,1,4.89-1.19h0a10.05,10.05,0,0,1,8.4,4.24l.61.92-.88.67c-1.26.95-3.56,2.68-3.56,6.11a6.89,6.89,0,0,0,3.85,6.38c.56.34,1.13.68,1.13,1.43,0,.48-3.9,11-9.57,11A7.7,7.7,0,0,1,20,89.15a6.53,6.53,0,0,0-2.87-.69,7.39,7.39,0,0,0-2.28.62,11.12,11.12,0,0,1-3.94.92Z"/><path class="cls-2" d="M23.85,50c.15,5.32-3.65,9-7.45,8.78C15.77,54.53,20.2,50,23.85,50Z"/></g><path class="cls-2" d="M67.54,15H50.88a.84.84,0,0,0-.84.83V29.17a4.18,4.18,0,0,0,3.34,4.08V37.5a2.5,2.5,0,0,0,5,0V33.33H60V37.5a2.5,2.5,0,1,0,5,0V33.25a4.18,4.18,0,0,0,3.34-4.08V15.83A.84.84,0,0,0,67.54,15Z"/><path class="cls-2" d="M63.57,4.44,65,1.16A.84.84,0,0,0,63.44.51L62,3.79a9.12,9.12,0,0,0-2.83-.45,9.21,9.21,0,0,0-2.83.45L55,.51a.83.83,0,1,0-1.53.65l1.4,3.28A9.18,9.18,0,0,0,50,12.5a.85.85,0,0,0,.84.84H67.54a.85.85,0,0,0,.84-.84A9.18,9.18,0,0,0,63.57,4.44ZM55.88,10a.83.83,0,1,1,0-1.66.83.83,0,0,1,0,1.66Zm6.66,0a.83.83,0,1,1,0-1.66.83.83,0,1,1,0,1.66Z"/><path class="cls-2" d="M72.54,15A2.5,2.5,0,0,0,70,17.5v8.33a2.5,2.5,0,0,0,5,0V17.5A2.5,2.5,0,0,0,72.54,15Z"/><path class="cls-2" d="M45.88,15a2.5,2.5,0,0,0-2.5,2.5v8.33a2.5,2.5,0,1,0,5,0V17.5A2.5,2.5,0,0,0,45.88,15Z"/><path class="cls-2" d="M53.11,90c-6,0-10.87-12.19-10.87-18.38,0-10.11,7.58-12.32,10.5-12.32a12.05,12.05,0,0,1,4,1,9.05,9.05,0,0,0,2.26.64,7.2,7.2,0,0,0,1.62-.52,13,13,0,0,1,4.9-1.19h0a10,10,0,0,1,8.39,4.24l.62.92-.89.67c-1.25.95-3.55,2.68-3.55,6.11a6.89,6.89,0,0,0,3.85,6.38c.55.34,1.12.68,1.12,1.43,0,.48-3.9,11-9.56,11a7.62,7.62,0,0,1-3.23-.79,6.56,6.56,0,0,0-2.87-.69,7.25,7.25,0,0,0-2.28.62,11.18,11.18,0,0,1-4,.92Z"/><path class="cls-2" d="M66.09,50c.14,5.32-3.66,9-7.46,8.78C58,54.53,62.43,50,66.09,50Z"/></g></g></svg>