<svg xmlns="http://www.w3.org/2000/svg" viewBox="0 0 41.71 64.75"><defs><style>.cls-1{fill:#9c0000;fill-rule:evenodd;}</style></defs><title>favicon</title><g id="Layer_2" data-name="Layer 2"><g id="사전등록"><path class="cls-1" d="M41.71,36.5A20.75,20.75,0,0,0,23.33,16l0-3.63A2.94,2.94,0,0,0,26.29,10l6.24-1.05c1-2.3,4.78-3.08,4.78-3.08L24.45,7.68,23.37,3.81,26,0,21.71,2.19V64.75c.3-1.78.78-4.79,1-7.64A20.76,20.76,0,0,0,41.71,36.5ZM23.29,19.34C29.92,20.76,35,27.91,35,36.51c0,8.78-5.25,16-12.07,17.26Z"/><path class="cls-1" d="M0,36.5A20.76,20.76,0,0,0,19,57.11c.25,2.85.72,5.86,1,7.64V2.19L15.51,0l2.67,3.81L17.11,7.65,4.41,5.84s3.81.78,4.78,3.08L15.43,10a2.93,2.93,0,0,0,2.92,2.35l0,3.63A20.75,20.75,0,0,0,0,36.5ZM18.43,19.34l.4,34.43C12,52.55,6.76,45.29,6.76,36.51,6.76,27.91,11.8,20.76,18.43,19.34Z"/></g></g></svg>