<?xml version="1.0" encoding="utf-8"?>
<!-- Generator: Adobe Illustrator 24.0.2, SVG Export Plug-In . SVG Version: 6.00 Build 0)  -->
<svg version="1.1" id="Layer_1" xmlns="http://www.w3.org/2000/svg" xmlns:xlink="http://www.w3.org/1999/xlink" x="0px" y="0px"
	 viewBox="0 0 288 108" style="enable-background:new 0 0 288 108;" xml:space="preserve">
<style type="text/css">
	.st0{fill-rule:evenodd;clip-rule:evenodd;fill:#FFFFFF;}
</style>
<path id="Rounded_Rectangle_1_copy_2_5_" class="st0" d="M277.38,54.25c-2.1,5.27-4.98,10.19-8.54,14.6
	c-2.42,2.98-5.28,5.58-8.47,7.72c-3.69,2.5-7.7,4.46-12.08,5.75c-3.39,1.06-6.54,1.59-9.39,1.59h-4.54l0.08-0.08
	c0,0,10.71-4.27,17.7-11.35c4.69-4.54,8-9.76,9.77-15.58c-2.15,0.53-4.31,0.83-6.46,0.83c-6.85,0-12.85-2.5-18.01-7.56
	c-4.62-4.92-6.93-10.51-6.93-16.72c0-4.84,1.31-9.38,3.85-13.54c1.69-2.57,3.46-4.54,5.31-5.82c4.69-3.71,9.85-5.52,15.47-5.52
	c5.54,0,10.31,1.29,14.24,3.78c3.77,2.42,6.62,5.9,8.62,10.44c1.77,4.16,2.69,8.7,2.69,13.54C280.69,42.3,279.61,48.28,277.38,54.25
	z M263.35,17.5c-2.39-1.99-5.11-2.99-7.95-2.99c-2.5,0-4.89,0.81-7.27,2.44c-4.32,3.53-6.48,8.78-6.48,15.83
	c0,6.6,2.05,11.76,6.25,15.56c2.27,1.99,4.77,2.99,7.5,2.99c3.52,0,6.7-1.63,9.43-4.98c2.95-3.89,4.43-8.41,4.43-13.57
	C269.26,26.18,267.33,21.03,263.35,17.5z M224.77,11.72c0-1.12,0.12-1.96,0.38-2.62c0.46-1.12,1.27-2.16,2.39-3.12
	c0.42-0.35,1.85-1.46,4.27-3.27v8.67l-7.05,3.04V11.72z M218.5,58.82c-2.09,1-4.34,1.5-6.7,1.5c-2.63,0-4.96-0.58-6.93-1.77v-0.04
	c-0.07-0.03-0.13-0.07-0.19-0.12c-0.27-0.15-0.58-0.23-0.89-0.23c-0.35,0-0.66,0.12-0.97,0.31l-0.35,0.31l-1.74,1.42l-2.44-10.64
	h2.29c0.66,0,1.32,0.27,1.94,0.77c0.31,0.27,0.85,0.85,1.63,1.73c1.08,1.42,2.17,2.42,3.25,2.96c1.59,0.81,3.25,1.23,5,1.23
	c1.43,0,2.67-0.38,3.68-1.11c1.01-0.81,1.51-1.77,1.51-2.96c0-0.77-0.27-1.5-0.77-2.19c-0.66-0.92-1.94-1.88-3.8-2.84
	c-0.29-0.13-0.58-0.27-0.85-0.42c-0.58-0.31-1.16-0.61-1.78-0.88c-2.44-1.19-4.38-2.23-5.77-3.15c-2.32-1.46-3.99-3.23-5.04-5.3
	c-0.89-1.69-1.32-3.42-1.32-5.22c0-2.19,0.62-4.15,1.86-5.8c1.43-1.96,3.64-3.27,6.59-3.96c1.26-0.28,2.55-0.42,3.84-0.42
	c2.09,0,3.95,0.42,5.62,1.23c0.81,0.46,1.39,0.69,1.82,0.69c0.54-0.04,1.16-0.58,1.82-1.54c0.08-0.14,0.19-0.27,0.31-0.38
	l3.41,10.64h-2.29c-0.74,0-1.36-0.27-1.94-0.77c-0.54-0.5-1.08-1.15-1.67-2c-0.81-1.04-1.51-1.88-2.13-2.46
	c-1.43-1.34-3.14-2.04-5.15-2.04c-1.2,0-2.21,0.23-3.02,0.65c-1.51,0.77-2.25,2.15-2.25,4.11c-0.01,0.53,0.12,1.04,0.39,1.5
	c0.23,0.5,0.58,0.92,1.05,1.34c0.47,0.46,0.99,0.86,1.55,1.19c0.65,0.41,1.32,0.78,2.01,1.11c0.74,0.38,1.47,0.77,2.25,1.15
	c1.12,0.54,2.29,1.11,3.45,1.77c1.17,0.63,2.3,1.33,3.37,2.11c1.03,0.79,1.98,1.7,2.83,2.69c0.81,0.98,1.42,2.1,1.82,3.3
	c0.39,1.19,0.58,2.5,0.58,3.84c0,1.57-0.31,2.92-0.89,4.11C222.46,56.25,220.79,57.79,218.5,58.82z M188.5,55.87
	c0.52-0.12,1.02-0.33,1.47-0.61c0.23-0.15,1.12-0.92,2.67-2.27l-1.55,7.26h-23.87l0.5-0.61c0.33-0.4,0.65-0.83,0.93-1.27
	c0.27-0.42,0.5-0.85,0.66-1.31c0.19-0.5,0.31-1.04,0.39-1.65V26.82c-0.08-0.65-0.19-1.19-0.39-1.65c-0.15-0.47-0.37-0.91-0.66-1.31
	c-0.28-0.44-0.6-0.86-0.93-1.27l-0.5-0.62h23.87l1.55,6.95l-1.82-1.54c-0.74-0.65-1.51-1.04-2.32-1.23c-0.27-0.08-3.95-0.12-11-0.12
	v12.87c0,0,7.48-2.99,9.35-3.8c0.84-0.37,1.62-0.85,2.32-1.42l-2.21,9.63c0-0.04-0.04-0.23-0.15-0.5c-0.04-0.04-0.04-0.12-0.08-0.19
	c-0.19-0.5-0.46-1.53-0.77-1.95c-0.66-0.88-1.39-0.4-2.36,0.07l-6.1,2.45v12.75C184.55,55.98,188.23,55.94,188.5,55.87L188.5,55.87z
	 M163.18,41.28c0,9.87-7.62,17.98-17.35,18.84c-0.22,2.6-0.65,5.36-0.93,6.98V9.93l3.96-2l-2.44,3.48l0.98,3.53l11.75-1.68
	c0,0-3.48,0.72-4.37,2.82l-5.7,0.96c-0.44,2.2-2.67,2.15-2.67,2.15l-0.04,3.31C155.84,23.61,163.18,31.59,163.18,41.28z
	 M146.34,25.6l-0.37,31.46C152.21,55.95,157,49.32,157,41.3C157,33.44,152.4,26.9,146.34,25.6z M145.53,75.89
	c-0.53,0-0.96,0.43-0.96,0.96c0,0.53,0.43,0.96,0.96,0.96c0.53,0,0.96-0.43,0.96-0.96c0-0.53-0.68-0.96-0.68-0.96l0-0.01
	c-0.1-0.03-0.15-0.14-0.12-0.23c0.03-0.08,0.1-0.13,0.18-0.13h61.17c0,0,0.01,0,0.01,0h1.63l-7.07,3.05l1.59-2.4h-53.22l-4.86,2.46
	l-1.93-2.6l0.81-4.03l0.75,3.47h0.5L145.53,75.89z M125.06,41.28c0-9.69,7.34-17.67,16.8-18.78l-0.04-3.31c0,0-2.22,0.05-2.67-2.15
	l-5.7-0.96c-0.89-2.1-4.37-2.82-4.37-2.82l11.61,1.66l0.98-3.51l-2.44-3.48l4.11,2V67.1c-0.28-1.63-0.71-4.38-0.93-6.98
	C132.68,59.26,125.06,51.15,125.06,41.28z M141.9,25.6c-6.06,1.3-10.66,7.83-10.66,15.69c0,8.02,4.79,14.65,11.03,15.77L141.9,25.6z
	 M124.68,60.24h-7.63c-1.7,0-3.14-0.92-4.34-2.8c-0.35-0.58-0.77-1.38-1.28-2.38l-4.57-9.53c-1.59,0.88-2.98,1.61-4.26,2.23v7.64
	c0.12,1.11,0.43,2.04,0.93,2.8l1.55,2.04H92.33l1.55-2.04c0.5-0.77,0.81-1.69,0.93-2.8V26.82c-0.08-0.65-0.19-1.19-0.39-1.65
	c-0.27-0.73-0.77-1.57-1.59-2.57l-0.5-0.62h18.94c2.17,0.15,4.07,0.73,5.66,1.69c2.44,1.42,3.68,3.73,3.68,6.84
	c0,2.23-1.01,4.53-2.98,6.88c-1.16,1.34-2.6,2.65-4.34,4l6.08,12.45C120.84,56.9,122.62,59.05,124.68,60.24z M111.97,26.67
	c-0.46-0.81-1.28-1.34-2.44-1.65c-0.35-0.08-2.67-0.12-6.94-0.12v19.4c1.7-0.77,3.18-1.65,4.38-2.69c2.29-1.92,3.87-4.15,4.77-6.68
	c0.58-1.65,0.89-3.27,0.89-4.84C112.63,28.63,112.4,27.48,111.97,26.67L111.97,26.67z M82.63,55.87c0.52-0.12,1.02-0.33,1.47-0.61
	c0.23-0.15,1.12-0.92,2.67-2.27l-1.55,7.26H61.36l0.5-0.61c0.33-0.4,0.65-0.83,0.93-1.27c0.27-0.42,0.5-0.85,0.66-1.31
	c0.19-0.5,0.31-1.04,0.39-1.65V26.82c-0.08-0.65-0.19-1.19-0.39-1.65c-0.15-0.47-0.37-0.91-0.66-1.31c-0.28-0.44-0.6-0.86-0.93-1.27
	l-0.5-0.62h23.87l1.55,6.95l-1.82-1.54c-0.74-0.65-1.51-1.04-2.32-1.23c-0.27-0.08-3.95-0.12-11-0.12v12.87c0,0,7.48-2.99,9.35-3.8
	c0.84-0.37,1.62-0.85,2.32-1.42l-2.21,9.63c0-0.04-0.04-0.23-0.15-0.5c-0.04-0.04-0.04-0.12-0.08-0.19
	c-0.19-0.5-0.46-1.53-0.77-1.95c-0.66-0.88-1.39-0.4-2.36,0.07l-6.1,2.45v12.75C78.68,55.98,82.36,55.94,82.63,55.87L82.63,55.87z
	 M53.78,71.19c0.24,0.71,0.6,1.37,1.02,2.02c0.44,0.68,0.92,1.34,1.44,1.96l0.78,0.95H39.54l0.78-0.95c0.52-0.63,1-1.28,1.44-1.96
	c0.42-0.64,0.78-1.32,1.08-2.02c0.31-0.82,0.49-1.68,0.54-2.56V45.41L20.7,55.16v13.47c0.05,0.88,0.23,1.74,0.54,2.56
	c0.3,0.7,0.66,1.38,1.08,2.02c0.44,0.68,0.92,1.34,1.44,1.96l0.78,0.95H7.06l0.78-0.95c0.52-0.63,1-1.28,1.44-1.96
	c0.42-0.65,0.78-1.31,1.02-2.02c0.3-0.77,0.48-1.61,0.6-2.56V21.99c-0.12-1.01-0.3-1.84-0.6-2.56c-0.23-0.72-0.58-1.41-1.02-2.02
	c-0.44-0.68-0.92-1.34-1.44-1.96l-0.78-0.95h17.49l-0.78,0.95c-0.52,0.63-1,1.28-1.44,1.96c-0.44,0.63-0.81,1.31-1.08,2.02
	c-0.31,0.82-0.5,1.68-0.54,2.56v26.45l22.68-9.75V21.99c-0.06-1.01-0.24-1.84-0.54-2.56c-0.28-0.72-0.64-1.4-1.08-2.02
	c-0.44-0.68-0.92-1.34-1.44-1.96l-0.78-0.95h17.49l-0.78,0.95c-0.52,0.63-1,1.28-1.44,1.96c-0.45,0.62-0.79,1.3-1.02,2.02
	c-0.3,0.71-0.48,1.55-0.6,2.56v46.64C53.3,69.58,53.48,70.41,53.78,71.19L53.78,71.19z M83.15,75.52h58.99c0.1,0,0.34,0,0.5,0.37
	l1.31,1.8l-1.31,0.87l-4.85-2.39H87.04l1.59,2.4l-7.07-3.05L83.15,75.52C83.15,75.52,83.15,75.52,83.15,75.52L83.15,75.52z
	 M85.96,96.81L90.45,84h1.49l4.97,14.26c0.29,0.84,0.57,1.44,0.83,1.81c0.11,0.17,0.25,0.31,0.41,0.43c0.14,0.1,0.29,0.16,0.46,0.19
	v0.35h-4.74v-0.36c0.23-0.04,0.45-0.15,0.62-0.32c0.16-0.16,0.24-0.37,0.24-0.59c0-0.11-0.02-0.22-0.05-0.33
	c-0.04-0.18-0.1-0.36-0.16-0.53l-0.09-0.3l-1.01-3.01H87.2l-0.8,2.27l-0.16,0.65l-0.05,0.57c0,0.43,0.1,0.8,0.3,1.1
	c0.22,0.26,0.52,0.43,0.92,0.51v0.36h-4.28v-0.36c0.61-0.22,1.14-0.6,1.52-1.11C85.07,99.05,85.51,98.13,85.96,96.81L85.96,96.81z
	 M93.2,94.89l-2.75-8.53l-2.99,8.53H93.2z M103.72,84.73c-0.27,0.05-0.47,0.15-0.62,0.3c-0.15,0.15-0.22,0.36-0.22,0.62
	c0,0.14,0.02,0.28,0.05,0.41l0.15,0.47l4.53,11.84l2.7-8.79l-0.68-2.1c-0.19-0.6-0.36-1.09-0.52-1.46c-0.15-0.37-0.3-0.64-0.43-0.79
	c-0.23-0.31-0.58-0.5-0.96-0.52v-0.33h4.85v0.33c-0.13,0-0.26,0.02-0.39,0.08c-0.12,0.05-0.22,0.13-0.31,0.22
	c-0.17,0.18-0.26,0.44-0.26,0.77l0.04,0.31l0.12,0.45l3.72,11.82l1.57-4.19c0.44-1.19,0.8-2.2,1.09-3.01
	c0.29-0.82,0.53-1.54,0.72-2.18c0.33-1.16,0.5-2.01,0.5-2.55c0-0.5-0.11-0.9-0.32-1.2c-0.2-0.29-0.53-0.48-0.88-0.52v-0.33h4.37
	v0.35c-0.46,0.07-0.87,0.37-1.23,0.9c-0.37,0.53-0.92,1.78-1.66,3.74l-3.1,8.37l-0.55,1.58l-0.6,1.9l-1.4,0l-3.3-10.41l-2.1,6.89
	l-0.37,1.35c-0.1,0.36-0.2,0.76-0.31,1.19c-0.07,0.25-0.15,0.58-0.24,0.99h-1.41l-5.51-14.27c-0.1-0.28-0.22-0.55-0.36-0.81
	c-0.13-0.24-0.28-0.47-0.45-0.68c-0.3-0.38-0.61-0.62-0.95-0.74v-0.33h4.73L103.72,84.73L103.72,84.73z M124.75,96.81L129.24,84
	h1.49l4.97,14.26c0.29,0.84,0.57,1.44,0.83,1.81c0.11,0.17,0.25,0.31,0.41,0.43c0.14,0.1,0.29,0.16,0.46,0.19v0.35h-4.74v-0.36
	c0.23-0.04,0.45-0.15,0.62-0.32c0.16-0.16,0.24-0.37,0.24-0.59c0-0.11-0.02-0.22-0.05-0.33c-0.04-0.18-0.1-0.36-0.16-0.53l-0.09-0.3
	l-1.01-3.01h-6.23l-0.8,2.27l-0.16,0.65l-0.05,0.57c0,0.43,0.1,0.8,0.3,1.1c0.22,0.26,0.52,0.43,0.92,0.51v0.36h-4.28v-0.36
	c0.61-0.22,1.14-0.6,1.52-1.11C123.86,99.05,124.29,98.13,124.75,96.81L124.75,96.81z M131.99,94.89l-2.75-8.53l-2.99,8.53H131.99z
	 M144.01,78.19l0.93,1.24l-0.93,1.86l-0.93-1.86L144.01,78.19z M145.21,84.72c-0.39,0-0.68,0.17-0.87,0.5
	c-0.19,0.33-0.29,0.87-0.29,1.62v7.41l3.6-3.69c0.86-0.89,1.55-1.61,2.07-2.16c0.52-0.55,0.88-0.98,1.1-1.28
	c0.42-0.58,0.64-1.04,0.64-1.37c0-0.32-0.08-0.57-0.25-0.73c-0.13-0.15-0.36-0.24-0.68-0.29v-0.33h4.92v0.35
	c-0.25,0.05-0.5,0.13-0.74,0.25c-0.28,0.14-0.54,0.3-0.78,0.49c-0.56,0.42-1.51,1.3-2.83,2.64l-2.75,2.79l4.28,6.64l0.42,0.62
	c0.98,1.58,1.78,2.42,2.4,2.55v0.33h-5.12v-0.33c0.2,0,0.39-0.08,0.52-0.23c0.08-0.07,0.14-0.15,0.19-0.24
	c0.05-0.11,0.07-0.22,0.06-0.33c0-0.1-0.02-0.21-0.06-0.31c-0.05-0.16-0.11-0.31-0.18-0.46c-0.13-0.28-0.43-0.79-0.89-1.5l-3.27-5.1
	l-2.64,2.66v3.41c0,0.74,0.09,1.27,0.27,1.61c0.18,0.33,0.48,0.5,0.88,0.5v0.33h-4.74v-0.33c0.39,0,0.68-0.17,0.87-0.52
	c0.1-0.2,0.16-0.42,0.2-0.65c0.05-0.31,0.08-0.63,0.07-0.95V86.84c0-0.76-0.09-1.29-0.26-1.6c-0.17-0.31-0.47-0.48-0.88-0.52v-0.33
	h4.74L145.21,84.72L145.21,84.72z M171.14,87.54l-0.44,0.06c-0.16-0.43-0.39-0.83-0.68-1.18c-0.27-0.32-0.61-0.59-0.99-0.78
	c-0.74-0.37-2.18-0.55-4.33-0.55h-0.77c-0.37,0-0.74,0.01-1.11,0.05c-0.26,0.03-0.44,0.09-0.54,0.17c-0.12,0.11-0.2,0.24-0.23,0.4
	c-0.06,0.24-0.08,0.49-0.08,0.74v5.06h2.4c0.58,0.01,1.16-0.03,1.74-0.09c0.49-0.06,0.87-0.15,1.16-0.27
	c0.56-0.25,0.96-0.66,1.18-1.26h0.34v4.12h-0.36c-0.21-0.57-0.54-0.98-1-1.23c-0.42-0.22-1.32-0.33-2.7-0.33h-2.76v6.23
	c0,0.75,0.14,1.22,0.41,1.42c0.27,0.18,0.96,0.26,2.07,0.26c1.29,0,2.23-0.03,2.83-0.09c0.31-0.02,0.58-0.05,0.81-0.09
	c0.24-0.04,0.48-0.1,0.72-0.18c0.26-0.09,0.51-0.2,0.76-0.32c0.28-0.15,0.54-0.32,0.78-0.52c0.47-0.38,0.99-0.93,1.56-1.65
	l0.45,0.22l-1.03,3.33h-12.92v-0.33c0.39,0,0.68-0.17,0.87-0.52c0.1-0.2,0.16-0.42,0.2-0.65c0.05-0.31,0.08-0.63,0.07-0.95V86.84
	c0-0.76-0.09-1.29-0.26-1.6c-0.17-0.31-0.47-0.48-0.88-0.52v-0.33h12.46L171.14,87.54z M181.1,84.13h0.87
	c2.41,0,4.33,0.44,5.74,1.31c1.41,0.87,2.12,2.03,2.12,3.46c0,1.06-0.44,1.97-1.32,2.73c-0.44,0.38-1.03,0.71-1.78,0.99
	c-0.81,0.3-1.66,0.5-2.51,0.59c0.51,1.14,1.03,2.19,1.56,3.15c0.48,0.9,1,1.77,1.58,2.6c0.45,0.64,0.85,1.13,1.22,1.49
	c0.5,0.48,1.06,0.88,1.68,1.2v1.06c-0.95-0.38-1.76-0.79-2.44-1.24c-0.82-0.55-1.56-1.21-2.19-1.97c-0.76-0.87-1.45-1.79-2.08-2.75
	c-0.7-1.06-1.29-2.19-1.77-3.37h-0.86l-1.61-0.05h-0.12v5.29c0,0.75,0.09,1.29,0.27,1.59c0.18,0.35,0.48,0.52,0.88,0.52v0.33h-4.74
	v-0.33c0.39,0,0.68-0.17,0.87-0.52c0.19-0.35,0.28-0.88,0.28-1.6V86.86c0-0.77-0.09-1.31-0.27-1.61c-0.17-0.31-0.46-0.48-0.87-0.52
	v-0.35l4.02-0.18L181.1,84.13z M179.2,92.71c0.17,0.04,0.32,0.07,0.44,0.09c0.13,0.02,0.27,0.03,0.4,0.03h1.08
	c2.05,0,3.57-0.33,4.57-0.99c1-0.66,1.49-1.65,1.49-2.99c0-1.34-0.44-2.37-1.33-3.1c-0.88-0.73-2.13-1.09-3.73-1.09
	c-1.08,0-1.84,0.14-2.29,0.42c-0.42,0.29-0.63,0.82-0.63,1.57V92.71z M194.83,96.2c0.36,1.48,0.99,2.63,1.91,3.43
	c0.92,0.8,2.01,1.2,3.27,1.2c1.16,0,2.1-0.31,2.82-0.92c0.72-0.62,1.08-1.41,1.08-2.39c0-0.93-0.29-1.68-0.86-2.26
	c-0.57-0.57-1.76-1.19-3.57-1.85c-0.23-0.07-0.45-0.15-0.67-0.24c-1.69-0.61-2.83-1.2-3.4-1.76c-0.4-0.39-0.72-0.85-0.96-1.36
	c-0.22-0.49-0.33-1.03-0.32-1.57c0-1.29,0.5-2.36,1.51-3.21c1-0.85,2.29-1.27,3.85-1.27c0.44,0,0.87,0.03,1.31,0.09
	c0.45,0.07,0.89,0.17,1.32,0.31c0.85,0.27,1.76,0.67,2.73,1.21l-0.78,2.81l-0.42-0.08c-0.33-1.17-0.88-2.09-1.64-2.75
	c-0.76-0.66-1.67-0.99-2.74-0.99c-1.04,0-1.87,0.26-2.5,0.77c-0.63,0.51-0.95,1.19-0.95,2.04c0,0.75,0.26,1.39,0.78,1.9
	c0.5,0.48,1.53,1.03,3.09,1.64l0.71,0.26c2.1,0.78,3.45,1.45,4.05,2.01c0.43,0.38,0.78,0.85,1.01,1.38
	c0.23,0.56,0.34,1.17,0.34,1.78c0,1.45-0.56,2.65-1.69,3.6c-1.12,0.95-2.57,1.42-4.34,1.42c-1.16,0.01-2.31-0.18-3.4-0.54
	c-1.06-0.36-2.05-0.9-2.93-1.6l0.96-3.15L194.83,96.2z"/>
</svg>
